<?xml version="1.0" encoding="UTF-8"?>
<svg id="Layer_1" xmlns="http://www.w3.org/2000/svg" version="1.1" viewBox="0 0 2681.36 680.01">
  <!-- Generator: Adobe Illustrator 30.1.0, SVG Export Plug-In . SVG Version: 2.1.1 Build 136)  -->
  <defs>
    <style>
      .st0 {
        fill: none;
      }

      .st1 {
        fill: #ffd93d;
      }

      .st2 {
        fill: #fff;
      }
    </style>
  </defs>
  <path class="st2" d="M567.24,591.46c-7.31,38.32-42.64,62.4-80.83,55.32l-323.19-60.01c-15.98-2.97-29.71,1.63-46.69-.46-28.28-3.47-59.19-28.45-59.19-60.27l.08-421.75c0-35.57,35.35-61.76,68.61-61.12l298.01.07c39.42,0,69.31,32.97,67.94,71.98l94.9,17.07c35.02,6.29,57.26,38.55,53.93,73.91l-73.55,385.28h-.02ZM424.11,532.67c7.62-1.54,13.28-5.83,13.28-13.56V111.22c0-6.77-4.42-11.24-10.19-13.69l-304.14.06c-7.27,0-11.91,6.99-11.91,13.55v406.96c0,8.28,5.23,13.33,13.23,14.58h299.74-.01ZM514.24,578.58l72.07-376.82c.85-8.15-2.85-15.37-10.88-16.75l-83.34-14.38-.19,348.48c-.01,29.5-18.87,52.86-46.19,64.28l48.92,9.55c5.1.99,9.72,1.06,13.78-2.06,3.61-2.78,4.65-6.16,5.83-12.31h0Z"/>
  <path class="st2" d="M251.99,409.59l15.37,27.74c2.65,4.77,8.26,7.67,13.65,7.85,4.33.15,10.75-2.63,13.2-7.75l62.76-130.77,42.97,18.95c5.19,2.29,11.46.8,15.3-2.92,3.21-3.13,6.64-8.33,5.12-14.19l-30.11-116.68c-2.22-8.62-7.71-15.11-13.96-18.46-8.92-4.78-16.63-3.74-25.56-.86l-133.94,43.28c-6.99,2.25-8.63,10.2-8.35,16.02s4.4,10.38,10.28,12.96l22.53,9.86c3.53,1.54,6.71,2.58,9.29,6.29l-112.61,143.86c-8.72,11.14-4.17,26.74,4.52,34.93,10.23,9.65,23.08,9.09,35.2,2.78l68.17-35.45c2.32-1.21,4.9.3,6.14,2.54h.01ZM166.58,313.49c9.32-8.35,17.36-16.99,26.01-25.6,7.55-7.51,9.12-19.15,1.95-27.14-6.64-7.41-18.96-8.5-26.75-.7l-26.47,26.49c-7.05,7.07-6.27,18.83-.07,25.41s17.75,8.35,25.34,1.55h0Z"/>
  <path class="st1" d="M251.99,409.59c-1.24-2.24-3.81-3.75-6.14-2.54l-68.17,35.45c-12.12,6.31-24.97,6.86-35.2-2.78-8.69-8.2-13.24-23.81-4.52-34.93l112.61-143.86c-2.57-3.72-5.76-4.75-9.29-6.29l-22.53-9.86c-5.88-2.58-10-7.36-10.28-12.96s1.36-13.76,8.35-16.02l133.94-43.28c8.93-2.88,16.64-3.92,25.56.86,6.25,3.35,11.74,9.86,13.96,18.46l30.11,116.68c1.51,5.86-1.91,11.06-5.12,14.19-3.84,3.73-10.1,5.21-15.3,2.92l-42.97-18.95-62.76,130.77c-2.46,5.11-8.87,7.89-13.2,7.75-5.4-.18-11.02-3.07-13.65-7.85l-15.37-27.74h-.01Z"/>
  <path class="st1" d="M166.58,313.49c-7.59,6.8-19.32,4.82-25.34-1.55-6.02-6.37-6.99-18.35.07-25.41l26.47-26.49c7.79-7.8,20.11-6.71,26.75.7,7.17,7.99,5.59,19.63-1.95,27.14-8.65,8.62-16.69,17.26-26.01,25.6Z"/>
  <g>
    <rect class="st0" x="729.94" y="152.53" width="2000.16" height="444.8"/>
    <path class="st2" d="M948.52,456.29c-1.07,5.36-2.77,10.98-5.09,16.88-2.33,5.89-5.18,11.25-8.57,16.07-3.4,4.82-7.23,8.76-11.52,11.79-4.29,3.04-9.11,4.55-14.46,4.55h-156.97l-3.75-6.96,72.86-339.13,6.43-6.96h157.51c5,0,9.02,1.61,12.05,4.82,3.03,3.21,5.17,7.23,6.43,12.05,1.25,4.82,1.78,10.1,1.61,15.8-.18,5.72-.8,11.25-1.88,16.61l-54.65,254.48ZM892.27,419.33l38.57-180.55-3.21-6.96h-58.4l-41.79,194.47h58.4l6.43-6.96Z"/>
    <path class="st2" d="M972.62,498.62l72.86-339.13,6.43-6.96h148.4l3.75,6.43-13.93,66.97-6.96,6.43h-89.47l-12.32,56.79h86.79l4.29,6.43-13.93,66.97-7.5,6.43h-86.79l-12.32,56.79h90l4.29,6.43-15,66.97-6.43,6.43h-148.4l-3.75-6.96Z"/>
    <path class="st2" d="M1361.57,433.26l-14.46,65.36-5.89,6.96h-149.47c-5.01,0-9.02-1.52-12.05-4.55-3.04-3.03-5.18-6.96-6.43-11.79-1.26-4.82-1.79-10.09-1.61-15.8.18-5.71.8-11.25,1.88-16.61l55.18-255.55c1.07-5.36,2.76-10.89,5.09-16.61,2.32-5.71,5.09-10.98,8.3-15.8,3.21-4.82,6.96-8.75,11.25-11.79,4.29-3.03,9.11-4.55,14.46-4.55h125.9c5,0,8.92,1.52,11.79,4.55,2.85,3.04,4.91,6.96,6.16,11.79,1.25,4.82,1.78,10.1,1.61,15.8-.18,5.72-.8,11.25-1.88,16.61l-15,68.57c-8.22,8.22-17.86,15.9-28.93,23.04-11.08,7.15-23.04,12.68-35.89,16.61h-1.61c-2.86-2.5-4.11-5.89-3.75-10.18l12.86-60.54-3.21-6.96h-44.47l-6.96,6.96-38.57,180.55,3.75,6.96h108.22l3.75,6.96Z"/>
    <path class="st2" d="M1507.83,498.62l24.64-113.58h-63.75l-24.11,113.58-6.43,6.96h-53.57l-3.75-6.96,72.86-339.13,6.43-6.96h53.57l3.75,6.96-33.75,158.04h2.14l90.01-158.04,6.96-6.96h58.93l3.21,6.96-81.97,145.72h21.97c5.36,0,9.46,1.52,12.32,4.55,2.85,3.04,5,6.96,6.43,11.79,1.42,4.82,1.96,10.1,1.61,15.8-.36,5.72-1.07,11.25-2.14,16.61l-31.61,144.65-6.43,6.96h-53.58l-3.75-6.96Z"/>
    <path class="st2" d="M1662.65,505.58h-53.57l-3.75-6.96,13.93-65.9,6.96-6.96h53.57l3.21,6.96-13.93,65.9-6.43,6.96Z"/>
    <path class="st1" d="M1903.2,456.29c-1.07,5.36-2.77,10.98-5.09,16.88-2.33,5.89-5.18,11.25-8.57,16.07-3.4,4.82-7.23,8.76-11.52,11.79-4.29,3.04-9.11,4.55-14.46,4.55h-156.97l-3.75-6.96,72.86-339.13,6.43-6.96h157.51c5,0,9.02,1.61,12.05,4.82,3.03,3.21,5.17,7.23,6.43,12.05,1.25,4.82,1.78,10.1,1.61,15.8-.18,5.72-.8,11.25-1.88,16.61l-54.65,254.48ZM1846.94,419.33l38.57-180.55-3.21-6.96h-58.4l-41.79,194.47h58.4l6.43-6.96Z"/>
    <path class="st1" d="M1989.45,498.62l-6.43,6.96h-53.57l-4.29-6.96,114.11-334.84,9.64-11.25h109.29l4.29,11.25-30,334.84-6.43,6.96h-54.11l-3.75-6.96,4.29-51.43h-66.43l-16.61,51.43ZM2038.74,367.36h36.43l4.82-4.82,10.71-130.72h-9.11l-45,130.72,2.14,4.82Z"/>
    <path class="st1" d="M2292.67,375.93l-3.75-6.96h-69.11c-5.01,0-8.93-1.51-11.79-4.55-2.86-3.03-4.91-6.96-6.16-11.79-1.26-4.82-1.7-10.09-1.34-15.8.35-5.71,1.07-11.25,2.14-16.61l25.18-118.94c1.07-5.36,2.76-10.89,5.09-16.61,2.32-5.71,5.09-10.98,8.3-15.8,3.21-4.82,6.96-8.75,11.25-11.79,4.29-3.03,9.11-4.55,14.46-4.55h132.86l3.21,6.96-13.93,65.36-6.96,6.96h-91.61l-6.96,6.96-9.11,43.4,3.21,6.96h69.11c5.36,0,9.46,1.52,12.32,4.55,2.85,3.04,5,6.96,6.43,11.79,1.42,4.82,1.96,10.1,1.61,15.8-.36,5.72-1.07,11.25-2.14,16.61l-25.72,118.93c-1.07,5.36-2.77,10.9-5.09,16.61-2.33,5.72-5.09,10.98-8.3,15.8-3.21,4.82-6.88,8.76-10.98,11.79-4.11,3.04-8.84,4.55-14.2,4.55h-133.4l-3.21-6.96,13.93-65.36,7.5-6.96h91.61l6.43-6.96,9.11-43.4Z"/>
    <path class="st1" d="M2494.64,505.58l-4.29-6.96,27.86-129.65h-62.68l-27.86,129.65-6.43,6.96h-53.57l-3.75-6.96,72.86-339.13,6.43-6.96h53.57l3.75,6.96-27.86,129.65h62.68l27.86-129.65,6.96-6.96h53.58l3.75,6.96-72.86,339.13-6.43,6.96h-53.58Z"/>
  </g>
  <rect class="st0" x="2853.38" y="757.42" width="2.87" height="0"/>
</svg>